<?xml version="1.0" encoding="UTF-8" standalone="no"?>
<!DOCTYPE svg PUBLIC "-//W3C//DTD SVG 1.1//EN" "http://www.w3.org/Graphics/SVG/1.1/DTD/svg11.dtd">
<svg width="100%" height="100%" viewBox="0 0 20 20" version="1.1" xmlns="http://www.w3.org/2000/svg" xmlns:xlink="http://www.w3.org/1999/xlink" xml:space="preserve" xmlns:serif="http://www.serif.com/" style="fill-rule:evenodd;clip-rule:evenodd;stroke-linejoin:round;stroke-miterlimit:2;">
    <g transform="matrix(1,0,0,1,-1808,-26.9838)">
        <g>
            <g transform="matrix(0.977845,0,0,0.977845,46.9425,0.5426)">
                <circle cx="1803.51" cy="29.597" r="2.557" style="fill:rgb(96,97,101);"/>
            </g>
            <g transform="matrix(0.977845,0,0,0.977845,46.9425,8.01206)">
                <circle cx="1803.51" cy="29.597" r="2.557" style="fill:rgb(96,97,101);"/>
            </g>
            <g transform="matrix(0.977845,0,0,0.977845,46.9425,15.4815)">
                <circle cx="1803.51" cy="29.597" r="2.557" style="fill:rgb(96,97,101);"/>
            </g>
            <g transform="matrix(0.977845,0,0,0.977845,54.4364,0.5426)">
                <circle cx="1803.51" cy="29.597" r="2.557" style="fill:rgb(96,97,101);"/>
            </g>
            <g transform="matrix(0.977845,0,0,0.977845,54.4364,8.01206)">
                <circle cx="1803.51" cy="29.597" r="2.557" style="fill:rgb(96,97,101);"/>
            </g>
            <g transform="matrix(0.977845,0,0,0.977845,54.4364,15.4815)">
                <circle cx="1803.51" cy="29.597" r="2.557" style="fill:rgb(96,97,101);"/>
            </g>
            <g transform="matrix(0.977845,0,0,0.977845,61.9303,0.5426)">
                <circle cx="1803.51" cy="29.597" r="2.557" style="fill:rgb(96,97,101);"/>
            </g>
            <g transform="matrix(0.977845,0,0,0.977845,61.9303,8.01206)">
                <circle cx="1803.51" cy="29.597" r="2.557" style="fill:rgb(96,97,101);"/>
            </g>
            <g transform="matrix(0.977845,0,0,0.977845,61.9303,15.4815)">
                <circle cx="1803.51" cy="29.597" r="2.557" style="fill:rgb(96,97,101);"/>
            </g>
        </g>
    </g>
</svg>
